<svg xmlns="http://www.w3.org/2000/svg" viewBox="0 0 344.89 650.22"><defs><style>.cls-1{fill:#2d2d2d;}.cls-2{fill:#fff;}.cls-3{fill:#353435;}.cls-4{fill:#3d3c3c;}.cls-5{fill:#3a3129;}.cls-6{fill:#3d7850;}.cls-7{fill:#366845;}.cls-8{fill:#72593d;}.cls-9{fill:#1d1d1b;}.cls-10,.cls-11{fill:none;stroke-miterlimit:10;stroke-width:4px;}.cls-10{stroke:#1d1d1b;}.cls-11{stroke:#3c3c3b;}</style></defs><title>Ресурс 1</title><g id="Слой_2" data-name="Слой 2"><g id="Слой_1-2" data-name="Слой 1"><path class="cls-1" d="M127.45,223.7s-7.33-36.9-37-20.47c-36,20-2,45.79-2,45.79Z"/><path class="cls-1" d="M231.57,225.51s7.33-36.9,37-20.47c36,20,2,45.79,2,45.79Z"/><path class="cls-2" d="M316.22,396.89c0,60.24-7.53,241.22-7.53,241.22s-32.39,14.8-138.27,11.68S32.93,630.32,32.93,630.32L29.12,398.88S15,208.9,173.9,208.9c142.31,0,142.31,127.75,142.31,188"/><path class="cls-3" d="M31.12,525.71s43.81,22,152.32,22.79c87,.6,129.75-23.48,129.75-23.48l-4.5,113.63S291,650.22,183.44,650.09C77.26,650,32.93,631.21,32.93,631.21Z"/><path class="cls-4" d="M97,253s21.38-16.36,38.34-8.81c17.26,7.68,2.34,40.92-7.92,51.35s-26.7,24.28-39.34,12.16S79.46,267.05,97,253"/><path class="cls-5" d="M64.16,149s25.92-30.64,109.55-28.56,107.13,31.17,107.13,31.17,4.5,14.64-107,12.77C60.82,162.44,64.16,149,64.16,149"/><path class="cls-4" d="M318,634.27c-2.82,1.79-5.92,3.56-9.34,5.3-4.53,2.31-16.81,4.46-30.08,6.14-5.34.68-10.84,1.28-16.05,1.78-7.75.74-14.89,1.28-20,1.52-7.63-17.19-5.25-43.49-2.47-57.66,4.59-23.38,23.46-88,61.91-76.68s41.71,47.11,42.71,66.94c.78,15.47.93,35.09-26.71,52.66"/><path class="cls-4" d="M99.46,644.88c-5.35-.49-13.21-1.46-21.69-2.71-18.37-2.69-39.69-6.65-44.84-9.74-3.67-2.2-6.94-4.38-9.86-6.54C-1.85,607.46-.86,590.5.65,576c2-19.14,6.93-52.79,45.87-61.81s54.7,53.38,58.16,75.86c2.1,13.63,3.22,38.79-5.23,54.81"/><path class="cls-3" d="M29.49,421.29s49.59,10.5,145.14,10.5c87.5,0,141.26-7.89,141.26-7.89l-2.29-93.85s-50.69,8.76-137.43,7.74c-95.44-1.11-147.43-11.94-147.43-11.94Z"/><path class="cls-4" d="M315.89,423.91S251.45,367.49,255.07,332c2.21-21.64,9.23-167.42,9.55-191a1.73,1.73,0,0,1,2.74-1.38c9.7,6.9,13.67,12.16,13.67,12.16V108.45a3,3,0,0,1,3-3c3.13,0,7.78.56,9.45,3.23,13.76,22,20.47,104.13,22.39,139.37"/><path class="cls-6" d="M157.85,183.71s22.76-1.47,34.66-25.19c0,0,7.66,21.9-7.4,30.12-12.87,7-27.27-4.93-27.27-4.93"/><path class="cls-7" d="M157.85,183.71s18.31,3.88,25.59-2.08c9.34-7.64,9.07-21,9.08-23.11,0,0,6.8,19-4.88,28.47-12.76,10.35-29.78-3.28-29.78-3.28"/><path class="cls-4" d="M29.49,421.29s64.44-56.41,60.82-91.92c-2.21-21.64-9.23-167.42-9.55-191A1.74,1.74,0,0,0,78,137c-9.7,6.9-13.67,12.16-13.67,12.16V106.06a3.21,3.21,0,0,0-3.28-3.22c-3.12.06-7.57.63-9.19,3.22-13.76,22-19.91,104.17-22.4,139.37-3.62,51.35,0,175.85,0,175.85"/><path class="cls-8" d="M281,151.67s1-54.55-1.43-85.12C277.09,36.17,248.9,1.25,172.77,0c-76-1.22-99.4,34.73-105.63,59.67-5.17,20.68-2.67,67.84-2.85,89.08,2-2.23,29.11-30.42,109.43-28.42,83.63,2.08,107.13,31.17,107.13,31.17"/><path class="cls-4" d="M225.86,243.86s23.15-.17,40.51,28.74c17.62,29.34-3.81,37.39-11.6,38.26s-33.24-1.73-47.08-24.41-8.91-34.27-3.51-38.08,11.91-5.19,21.68-4.5"/><path class="cls-9" d="M125.5,255.76c0,2.72-1.48,4.93-3.31,4.93s-3.31-2.21-3.31-4.93,1.48-4.93,3.31-4.93,3.31,2.21,3.31,4.93"/><path class="cls-9" d="M222.87,259.53c0,2.72-1.48,4.93-3.31,4.93s-3.31-2.21-3.31-4.93,1.48-4.93,3.31-4.93,3.31,2.21,3.31,4.93"/><path class="cls-2" d="M159.81,296.78s4.93-1.82,16.36,0"/><path class="cls-10" d="M159.81,296.78s4.93-1.82,16.36,0"/><path class="cls-2" d="M137.32,280.82s7.76-32.61,12.07-41.21c3.16-6.29,9.22-8.78,20-8.78s19,1.11,23.76,10c3.64,6.73,11,40,11,40"/><path class="cls-11" d="M137.32,280.82s7.76-32.61,12.07-41.21c3.16-6.29,9.22-8.78,20-8.78s19,1.11,23.76,10c3.64,6.73,11,40,11,40"/><path class="cls-1" d="M170.75,260c15.38,0,16.43-1.11,26.89-5.78,0,0-3.64-15.24-9.32-19.22-5.47-3.84-9.42-4.07-17.58-4.2s-15.31,1.18-18.71,5-5.48,8.59-8.07,19.55A85.12,85.12,0,0,0,170.75,260"/><path class="cls-2" d="M77.77,642.18c-18.37-2.69-39.69-6.65-44.84-9.74-3.67-2.2-6.94-4.38-9.86-6.54,1.87-16.47,7.83-48.71,25.8-49,32-.56,30.65,54.14,28.9,65.3"/><path class="cls-2" d="M318,634.27c-2.82,1.79-5.92,3.56-9.34,5.3-4.53,2.31-16.81,4.46-30.08,6.14-5.34.68-10.84,1.28-16.05,1.78-.88-15.08,1.69-65.49,32-63.63C312,585,316.71,617,318,634.27"/></g></g></svg>